#!OML:ASF X:\für Bonn\!DataBase\2005_08_12_Daniel\c3d\Daniel.ASF
:FULLY-SPECIFIED
:DEGREES
47
root 2.77478 17.6583 17.4119 -4.7262 10.4404 0.113009
lowerback 4.47886 -2.06858 0.304767
upperback 2.15149 -2.75723 -2.33426
thorax -0.428315 -1.36646 -2.43336
lowerneck -1.30456 0.454952 -2.41358
upperneck 8.88323 0.958507 -2.91211
head 3.06777 0.299571 -0.494616
rclavicle 2.45996e-015 -1.43125e-014
rhumerus -42.8445 -1.57251 -90.4053
rradius 94.9596
rwrist -9.28635
rhand -28.9742 24.5377
rfingers 7.12502
rthumb -2.32675 -5.42933
lclavicle 2.45996e-015 -1.43125e-014
lhumerus -34.605 30.5444 73.1993
lradius 19.6415
lwrist -35.3265
lhand -1.65 -4.42541
lfingers 7.12502
lthumb 24.009 24.0931
rfemur 9.62119 19.0793 21.6866
rtibia 13.1503
rfoot -25.6207 -26.7422
rtoes -11.4411
lfemur 1.19948 -16.0256 -20.0119
ltibia 26.0061
lfoot -22.1018 10.1415
ltoes -12.0457
48
root 2.77448 17.6585 17.4098 -4.72653 10.5055 0.112744
lowerback 4.51923 -2.00055 0.283627
upperback 2.12433 -2.66863 -2.38895
thorax -0.47632 -1.32246 -2.4802
lowerneck -1.22075 0.372181 -2.38335
upperneck 8.89487 0.840585 -2.87281
head 3.05538 0.244026 -0.49079
rclavicle -8.82107e-015 2.8625e-014
rhumerus -41.1159 -0.829855 -89.8893
rradius 96.1286
rwrist -8.99515
rhand -28.8736 24.6576
rfingers 7.12502
rthumb -2.22959 -5.3105
lclavicle -8.82107e-015 2.8625e-014
lhumerus -34.6283 30.6235 73.0972
lradius 19.595
lwrist -35.4182
lhand -1.69176 -4.40519
lfingers 7.12502
lthumb 23.969 24.1185
rfemur 9.60407 18.9685 21.6614
rtibia 13.165
rfoot -25.6035 -26.6967
rtoes -11.4488
lfemur 1.17233 -16.0418 -20.0026
ltibia 26.0118
lfoot -22.0783 10.0953
ltoes -12.051
49
root 2.77445 17.6586 17.4072 -4.73504 10.5473 0.137337
lowerback 4.57862 -1.92228 0.23715
upperback 2.0944 -2.56767 -2.43943
thorax -0.535805 -1.27249 -2.50859
lowerneck -1.16891 0.282974 -2.42264
upperneck 8.95729 0.715343 -2.77805
head 3.06578 0.183236 -0.457399
rclavicle 3.23025e-015 -9.54166e-015
rhumerus -39.3306 -0.0323227 -89.2791
rradius 97.2069
rwrist -8.69305
rhand -28.8707 24.7998
rfingers 7.12502
rthumb -2.2268 -5.1683
lclavicle 3.23025e-015 -9.54166e-015
lhumerus -34.6674 30.8502 72.95
lradius 19.4954
lwrist -35.6927
lhand -1.90517 -4.49112
lfingers 7.12502
lthumb 23.7643 24.0594
rfemur 9.60441 18.9092 21.6227
rtibia 13.1768
rfoot -25.5995 -26.6738
rtoes -11.4471
lfemur 1.15598 -15.9879 -20.0111
ltibia 26.0187
lfoot -22.0511 10.0068
ltoes -12.0606
50
root 2.77466 17.6587 17.4035 -4.7585 10.5571 0.148064
lowerback 4.64971 -1.83016 0.216526
upperback 2.07874 -2.4471 -2.48639
thorax -0.587143 -1.21243 -2.54907
lowerneck -1.19273 0.182061 -2.45771
upperneck 9.08172 0.581859 -2.71743
head 3.11211 0.115607 -0.436287
rclavicle 1.15295e-014 -2.22639e-014
rhumerus -37.4792 0.654259 -88.5838
rradius 98.198
rwrist -8.30527
rhand -28.7938 24.913
rfingers 7.12502
rthumb -2.15254 -5.05586
lclavicle 1.15295e-014 -2.22639e-014
lhumerus -34.7357 31.247 72.7271
lradius 19.3873
lwrist -36.1464
lhand -2.10642 -4.50264
lfingers 7.12502
lthumb 23.5713 24.0728
rfemur 9.60354 18.8592 21.5942
rtibia 13.1876
rfoot -25.5677 -26.6371
rtoes -11.458
lfemur 1.16582 -15.9987 -20.0332
ltibia 26.0248
lfoot -22.0398 10.0111
ltoes -12.0602
